<svg id="Layer_1" data-name="Layer 1" xmlns="http://www.w3.org/2000/svg" viewBox="0 0 1209.13 209.53"><defs><style>.cls-1,.cls-6{fill:none;stroke:#231f20;stroke-miterlimit:10;}.cls-1{stroke-width:0.25px;opacity:0.25;}.cls-2{fill:#003047;}.cls-3{fill:#e8d8a6;}.cls-4{fill:#bb4126;}.cls-5{fill:#9b2327;}.cls-6{stroke-width:0.5px;}.cls-7{fill:#93d0bc;opacity:0.73;}.cls-8{fill:#025f74;}.cls-9{fill:#0a9396;}.cls-10{fill:#ed9c21;}.cls-11{font-size:170px;fill:#231f20;font-family:SignPainter-HouseScript, SignPainter;}.cls-12{letter-spacing:-0.03em;}</style></defs><rect class="cls-1" x="188.17" y="8.63" width="39.75" height="164.58"/><rect class="cls-1" x="13.47" y="138.77" width="214.44" height="8.95"/><rect class="cls-2" x="13.47" y="8.63" width="25.78" height="38.88"/><rect class="cls-3" x="73.54" y="84.05" width="7.69" height="54.72"/><rect class="cls-4" x="170.03" y="147.72" width="18.13" height="25.5"/><rect class="cls-5" x="188.17" y="173.21" width="39.75" height="19.7"/><rect class="cls-1" x="81.23" y="8.63" width="88.81" height="184.29"/><rect class="cls-1" x="13.47" y="8.63" width="214.44" height="38.88"/><rect class="cls-1" x="13.47" y="84.05" width="214.44" height="54.72"/><rect class="cls-1" x="13.47" y="147.72" width="214.44" height="25.5"/><rect class="cls-6" x="13.47" y="8.63" width="214.44" height="184.29"/><rect class="cls-1" x="54.19" y="8.63" width="19.35" height="184.29"/><rect class="cls-1" x="56.4" y="8.63" width="17.14" height="184.29"/><rect class="cls-1" x="39.25" y="8.63" width="14.93" height="184.29"/><rect class="cls-1" x="13.47" y="47.51" width="214.44" height="7.11"/><rect class="cls-1" x="13.47" y="54.62" width="214.44" height="18.27"/><rect class="cls-1" x="13.47" y="72.9" width="214.44" height="11.16"/><rect class="cls-7" x="56.4" y="72.9" width="17.14" height="11.16"/><rect class="cls-8" x="39.25" y="47.51" width="14.93" height="7.11"/><rect class="cls-9" x="54.19" y="54.62" width="2.22" height="18.27"/><rect class="cls-10" x="81.23" y="138.77" width="88.81" height="8.95"/><text class="cls-11" transform="translate(88.25 127.55)">an<tspan class="cls-12" x="134.47" y="0">n</tspan><tspan x="194.65" y="0">-nmf</tspan></text></svg>